<?xml version="1.0" encoding="UTF-8"?>
<svg id="_图层_1" data-name="图层_1" xmlns="http://www.w3.org/2000/svg" viewBox="0 0 1920 1080">
  <defs>
    <style>
      .cls-1 {
        fill: #231815;
      }

      .cls-2 {
        fill: #fff;
      }
    </style>
  </defs>
  <path class="cls-1" d="M1477.89,631.66c-.49.17-.98.35-1.47.52-11.85,4.23-19.76,27.1-26.51,57.49v.07c-.73,3.22-1.43,6.5-2.13,9.9v.07l-.07.24-37.66,145.51c-.42,1.64-.98,3.29-1.68,4.86-8.85,19.97-17.52,30.6-30.56,33.61-.42-.04-.87-.04-1.29-.07-4.65,1.82-9.69,2.8-14.97,2.8h-61.44c-95.57,0-110.33,100.85-68.23,186,.28.63.42,1.33.42,2.06,0,2.87-2.27,5.21-5.11,5.28h-.14c-14.27,0-41.54-.42-41.4-.21h-138.97c-17.59,0-31.86-14.23-31.86-31.82V0h51.72c2.31,0,4.65,0,7.1.07,118.44,1.47,377.57,42.31,412.54,366.1.35,3.22.17,6.43-.49,9.58.52,6.5.8,13.08.8,19.72,0,26.79-4.41,52.52-12.52,76.58l43.47,84.87,12.34,24.06c1.89,3.64,3.18,7.62,3.39,11.75,1.26,25.6-31.37,30.18-55.29,38.92Z"/>
  <path class="cls-2" d="M443.11,631.66c.49.17.98.35,1.47.52,11.85,4.23,19.76,27.1,26.51,57.49v.07c.73,3.22,1.43,6.5,2.13,9.9v.07l.07.24,37.66,145.51c.42,1.64.98,3.29,1.68,4.86,8.85,19.97,17.52,30.6,30.56,33.61.42-.04.87-.04,1.29-.07,4.65,1.82,9.69,2.8,14.97,2.8h61.44c95.57,0,110.33,100.85,68.23,186-.28.63-.42,1.33-.42,2.06,0,2.87,2.27,5.21,5.11,5.28h.14c14.27,0,41.54-.42,41.4-.21h138.97c17.59,0,31.86-14.23,31.86-31.82V0s-51.72,0-51.72,0c-2.31,0-4.65,0-7.1.07-118.44,1.47-377.57,42.31-412.54,366.1-.35,3.22-.17,6.43.49,9.58-.52,6.5-.8,13.08-.8,19.72,0,26.79,4.41,52.52,12.52,76.58l-43.47,84.87-12.34,24.06c-1.89,3.64-3.18,7.62-3.39,11.75-1.26,25.6,31.37,30.18,55.29,38.92Z"/>
</svg>